<svg xmlns="http://www.w3.org/2000/svg" style="display: none;">
  <symbol id="home" viewBox="0 0 24 24">
    <path d="M10 20v-6h4v6h5v-8h3L12 3 2 12h3v8z"/>
  </symbol>
  <symbol id="settings" viewBox="0 0 24 24">
    <path d="M19.14 12.94c.04-.3.06-.61.06-.94 0-.32-.02-.64-.07-.94l2.03-1.58c.18-.14.23-.41.12-.61l-1.92-3.32c-.12-.22-.37-.29-.59-.22l-2.39.96c-.5-.38-1.03-.7-1.62-.94l-.36-2.54c-.04-.24-.24-.41-.48-.41h-3.84c-.24 0-.43.17-.47.41l-.36 2.54c-.59.24-1.13.57-1.62.94l-2.39-.96c-.22-.08-.47 0-.59.22L2.74 8.87c-.12.21-.08.47.12.61l2.03 1.58c-.05.3-.09.63-.09.94s.02.64.07.94l-2.03 1.58c-.18.14-.23.41-.12.61l1.92 3.32c.12.22.37.29.59.22l2.39-.96c.5.38 1.03.7 1.62.94l.36 2.54c.05.24.24.41.48.41h3.84c.24 0 .44-.17.47-.41l.36-2.54c.59-.24 1.13-.56 1.62-.94l2.39.96c.22.08.47 0 .59-.22l1.92-3.32c.12-.22.07-.47-.12-.61l-2.01-1.58zM12 15.6c-1.98 0-3.6-1.62-3.6-3.6s1.62-3.6 3.6-3.6 3.6 1.62 3.6 3.6-1.62 3.6-3.6 3.6z"/>
  </symbol>
  <symbol id="corner-down-right" viewBox="0 0 24 24">
    <path d="M8 8L14 14M10 14L14 10M12 14L14 12" stroke="currentColor" stroke-width="2" stroke-linecap="round"/>
  </symbol>
  <symbol id="resize" viewBox="0 0 24 24">
<path d="M14.228 16.227a1 1 0 0 1-.707-1.707l1-1a1 1 0 0 1 1.416 1.414l-1 1a1 1 0 0 1-.707.293zm-5.638 0a1 1 0 0 1-.707-1.707l6.638-6.638a1 1 0 0 1 1.416 1.414l-6.638 6.638a1 1 0 0 1-.707.293zm-5.84 0a1 1 0 0 1-.707-1.707L14.52 2.043a1 1 0 1 1 1.415 1.414L3.457 15.934a1 1 0 0 1-.707.293z"
stroke="currentColor"/>
  </symbol>
  <!-- Add more symbols as needed -->
</svg>