<svg xmlns="http://www.w3.org/2000/svg" style="display: none;">
  <symbol id="home" viewBox="0 0 24 24">
    <path d="M10 20v-6h4v6h5v-8h3L12 3 2 12h3v8z"/>
  </symbol>
  <symbol id="settings" viewBox="0 0 24 24">
    <path d="M19.14 12.94c.04-.3.06-.61.06-.94 0-.32-.02-.64-.07-.94l2.03-1.58c.18-.14.23-.41.12-.61l-1.92-3.32c-.12-.22-.37-.29-.59-.22l-2.39.96c-.5-.38-1.03-.7-1.62-.94l-.36-2.54c-.04-.24-.24-.41-.48-.41h-3.84c-.24 0-.43.17-.47.41l-.36 2.54c-.59.24-1.13.57-1.62.94l-2.39-.96c-.22-.08-.47 0-.59.22L2.74 8.87c-.12.21-.08.47.12.61l2.03 1.58c-.05.3-.09.63-.09.94s.02.64.07.94l-2.03 1.58c-.18.14-.23.41-.12.61l1.92 3.32c.12.22.37.29.59.22l2.39-.96c.5.38 1.03.7 1.62.94l.36 2.54c.05.24.24.41.48.41h3.84c.24 0 .44-.17.47-.41l.36-2.54c.59-.24 1.13-.56 1.62-.94l2.39.96c.22.08.47 0 .59-.22l1.92-3.32c.12-.22.07-.47-.12-.61l-2.01-1.58zM12 15.6c-1.98 0-3.6-1.62-3.6-3.6s1.62-3.6 3.6-3.6 3.6 1.62 3.6 3.6-1.62 3.6-3.6 3.6z"/>
  </symbol>
  <symbol id="corner-down-right" viewBox="0 0 24 24">
    <path d="M8 8L14 14M10 14L14 10M12 14L14 12" stroke="currentColor" stroke-width="2" stroke-linecap="round"/>
  </symbol>
  <symbol id="resize" viewBox="0 0 24 24">
<path d="M14.228 16.227a1 1 0 0 1-.707-1.707l1-1a1 1 0 0 1 1.416 1.414l-1 1a1 1 0 0 1-.707.293zm-5.638 0a1 1 0 0 1-.707-1.707l6.638-6.638a1 1 0 0 1 1.416 1.414l-6.638 6.638a1 1 0 0 1-.707.293zm-5.84 0a1 1 0 0 1-.707-1.707L14.52 2.043a1 1 0 1 1 1.415 1.414L3.457 15.934a1 1 0 0 1-.707.293z"
stroke="currentColor"/>
</symbol>
<symbol id="successor" viewBox="0 0 512 512">
  <path stroke="currentColor" fill="currentColor" d="M448 416l0-64L64 352l0 64 384 0zm0 64L64 480c-35.3 0-64-28.7-64-64l0-64c0-35.3 28.7-64 64-64l384 0c35.3 0 64 28.7 64 64l0 64c0 35.3-28.7 64-64 64zM288 160c0 35.3-28.7 64-64 64L64 224c-35.3 0-64-28.7-64-64L0 96C0 60.7 28.7 32 64 32l144 0 16 0 144 0c44.2 0 80 35.8 80 80l0 16 38.1 0c21.4 0 32.1 25.9 17 41L433 239c-9.4 9.4-24.6 9.4-33.9 0L329 169c-15.1-15.1-4.4-41 17-41l38.1 0 0-16c0-8.8-7.2-16-16-16l-80 0 0 64z"/>
</symbol>
<symbol id="solar-system" viewBox="0 0 256 256">
  <path stroke="currentColor" fill="currentColor" d="M127.1,94.4c19.9,0,36.1,15.8,36.1,35.3s-16.2,35.3-36.1,35.3s-36.1-15.8-36.1-35.3S107.2,94.4,127.1,94.4z M127.1,65.7
	c-36,0-65.2,28.7-65.2,63.9s29.2,63.9,65.2,63.9c15.7,0,30.2-5.5,41.5-14.7c1.9,1.3,4.2,1.9,6.8,1.9c7,0,12.6-5.5,12.6-12.2
	c0-3.3-1.3-6.2-3.5-8.4c5.1-9.1,7.9-19.5,7.9-30.5C192.3,94.3,163.1,65.7,127.1,65.7z M181.2,157.6c-1.7-0.8-3.7-1.4-5.8-1.4
	c-7,0-12.6,5.5-12.6,12.2c0,2.8,1.1,5.6,2.7,7.6c-10.4,8.3-23.8,13.3-38.4,13.3c-33.7,0-61.1-26.9-61.1-59.9s27.4-59.9,61.1-59.9
	s61.1,26.9,61.1,59.9C188.3,139.6,185.7,149.2,181.2,157.6z M251,67.5c0-11.7-9.7-21.2-21.6-21.2c-4.9,0-9.3,1.6-13,4.2
	c-22.2-22.9-53.9-37.2-89-37.2c-67,0-121.5,52.1-121.5,116.2s54.5,116.2,121.5,116.2s121.5-52.1,121.5-116.2
	c0-15.4-3.2-30.1-8.9-43.5C246.6,82.2,251,75.4,251,67.5z M244.8,129.4c0,61.9-52.6,112.3-117.4,112.3S9.9,191.2,9.9,129.4
	S62.6,17.1,127.3,17.1c34,0,64.6,13.8,86.1,36c-3.5,3.8-5.7,8.8-5.7,14.3c0,11.7,9.7,21.2,21.6,21.2c2.4,0,4.7-0.4,7-1.2
	C241.8,100.5,244.8,114.6,244.8,129.4z M127.7,49.5c-11.4,0-22.3,2.3-32.1,6.4c-1.6-2.4-4.4-4-7.6-4c-5.1,0-9.1,4-9.1,9
	c0,1.4,0.3,2.7,0.9,3.9c-20.6,14.6-34,38.2-34,64.9c0,44.2,36.7,80.2,81.8,80.2s81.8-36,81.8-80.2S172.7,49.5,127.7,49.5z
	 M127.7,205.9c-42.8,0-77.7-34.2-77.7-76.2c0-25.4,12.8-47.9,32.3-61.8c1.6,1.3,3.5,1.9,5.7,1.9c5.1,0,9.1-4,9.1-9
	c0-0.4,0-0.8-0.1-1.2c9.4-4,19.8-6.2,30.7-6.2c42.8,0,77.7,34.2,77.7,76.2S170.5,205.9,127.7,205.9z"/>
</symbol>
  <!-- Add more symbols as needed -->
</svg>